RobotoDelta-wdthmin.ufo
<glyph name="zero" format="1">
  <advance width="950"/>
  <unicode hex="0030"/>
  <outline>
    <contour>
      <point x="74" y="405" type="line" smooth="yes"/>
      <point x="74" y="214"/>
      <point x="286" y="-30"/>
      <point x="475" y="-30" type="qcurve" smooth="yes"/>
      <point x="662" y="-30"/>
      <point x="876" y="214"/>
      <point x="876" y="405" type="qcurve" smooth="yes"/>
      <point x="876" y="1051" type="line" smooth="yes"/>
      <point x="876" y="1244"/>
      <point x="662" y="1486"/>
      <point x="475" y="1486" type="qcurve" smooth="yes"/>
      <point x="286" y="1486"/>
      <point x="74" y="1244"/>
      <point x="74" y="1051" type="qcurve" smooth="yes"/>
    </contour>
    <contour>
      <point x="260" y="395" type="qcurve" smooth="yes"/>
      <point x="260" y="1061" type="line" smooth="yes"/>
      <point x="260" y="1176"/>
      <point x="365" y="1333"/>
      <point x="475" y="1333" type="qcurve" smooth="yes"/>
      <point x="585" y="1333"/>
      <point x="690" y="1176"/>
      <point x="690" y="1061" type="qcurve" smooth="yes"/>
      <point x="690" y="395" type="line" smooth="yes"/>
      <point x="690" y="282"/>
      <point x="585" y="123"/>
      <point x="475" y="123" type="qcurve" smooth="yes"/>
      <point x="365" y="123"/>
      <point x="260" y="282"/>
    </contour>
  </outline>
</glyph>
<glyph name="one" format="1">
  <advance width="1116"/>
  <unicode hex="0031"/>
  <outline>
    <contour>
      <point x="523" y="0" type="line"/>
      <point x="707" y="0" type="line"/>
      <point x="707" y="1476" type="line"/>
      <point x="681" y="1476" type="line"/>
      <point x="225" y="1293" type="line"/>
      <point x="225" y="1113" type="line"/>
      <point x="523" y="1239" type="line"/>
    </contour>
  </outline>
</glyph>
<glyph name="two" format="2">
  <advance width="856"/>
  <unicode hex="0032"/>
  <outline>
    <contour>
      <point x="78" y="0" type="line"/>
      <point x="781" y="0" type="line"/>
      <point x="781" y="159" type="line"/>
      <point x="278" y="159" type="line"/>
      <point x="560" y="618" type="line" smooth="yes"/>
      <point x="650" y="764"/>
      <point x="747" y="1006"/>
      <point x="747.0" y="1161" type="qcurve" smooth="yes"/>
      <point x="747.0" y="1306"/>
      <point x="579.0" y="1476.0"/>
      <point x="417" y="1476.0" type="qcurve" smooth="yes"/>
      <point x="254" y="1476"/>
      <point x="68" y="1264"/>
      <point x="77" y="1050" type="qcurve" smooth="yes"/>
      <point x="79" y="990" type="line"/>
      <point x="261" y="990" type="line"/>
      <point x="260" y="1050" type="line" smooth="yes"/>
      <point x="258" y="1197"/>
      <point x="321" y="1312"/>
      <point x="416" y="1312" type="qcurve" smooth="yes"/>
      <point x="507" y="1312"/>
      <point x="565" y="1226"/>
      <point x="565" y="1135" type="qcurve" smooth="yes"/>
      <point x="565" y="1042"/>
      <point x="502" y="844"/>
      <point x="434" y="731" type="qcurve" smooth="yes"/>
      <point x="78" y="136" type="line"/>
    </contour>
  </outline>
</glyph>
<glyph name="three" format="1">
  <advance width="1116"/>
  <unicode hex="0033"/>
  <outline>
    <contour>
      <point x="127" y="380" type="line" smooth="yes"/>
      <point x="127" y="200"/>
      <point x="357" y="-30"/>
      <point x="537" y="-30" type="qcurve" smooth="yes"/>
      <point x="717" y="-30"/>
      <point x="953" y="200"/>
      <point x="953" y="401" type="qcurve" smooth="yes"/>
      <point x="953" y="540"/>
      <point x="821" y="730"/>
      <point x="711" y="762" type="qcurve"/>
      <point x="711" y="766" type="line"/>
      <point x="812" y="816"/>
      <point x="907" y="1000"/>
      <point x="907" y="1100" type="qcurve" smooth="yes"/>
      <point x="907" y="1270"/>
      <point x="700" y="1486"/>
      <point x="537" y="1486" type="qcurve" smooth="yes"/>
      <point x="375" y="1486"/>
      <point x="162" y="1260"/>
      <point x="162" y="1100" type="qcurve" smooth="yes"/>
      <point x="162" y="1090" type="line"/>
      <point x="340" y="1090" type="line"/>
      <point x="340" y="1100" type="line" smooth="yes"/>
      <point x="340" y="1212"/>
      <point x="451" y="1333"/>
      <point x="537" y="1333" type="qcurve" smooth="yes"/>
      <point x="623" y="1333"/>
      <point x="723" y="1212"/>
      <point x="723" y="1091" type="qcurve" smooth="yes"/>
      <point x="723" y="969"/>
      <point x="605" y="834"/>
      <point x="495" y="834" type="qcurve" smooth="yes"/>
      <point x="403" y="834" type="line"/>
      <point x="403" y="684" type="line"/>
      <point x="504" y="684" type="line" smooth="yes"/>
      <point x="624" y="684"/>
      <point x="767" y="541"/>
      <point x="767" y="400" type="qcurve" smooth="yes"/>
      <point x="767" y="258"/>
      <point x="642" y="123"/>
      <point x="537" y="123" type="qcurve" smooth="yes"/>
      <point x="432" y="123"/>
      <point x="305" y="258"/>
      <point x="305" y="380" type="qcurve" smooth="yes"/>
      <point x="305" y="390" type="line"/>
      <point x="127" y="390" type="line"/>
    </contour>
  </outline>
</glyph>
<glyph name="four" format="1">
  <advance width="1156"/>
  <unicode hex="0034"/>
  <outline>
    <contour>
      <point x="679" y="0" type="line"/>
      <point x="851" y="0" type="line"/>
      <point x="851" y="1456" type="line"/>
      <point x="708" y="1456" type="line"/>
      <point x="115" y="466" type="line"/>
      <point x="115" y="344" type="line"/>
      <point x="1030" y="344" type="line"/>
      <point x="1030" y="496" type="line"/>
      <point x="808" y="496" type="line"/>
      <point x="744" y="496" type="line"/>
      <point x="313" y="496" type="line"/>
      <point x="667" y="1078" type="line"/>
      <point x="679" y="1078" type="line"/>
      <point x="679" y="448" type="line"/>
      <point x="679" y="398" type="line"/>
    </contour>
  </outline>
</glyph>
<glyph name="five" format="2">
  <advance width="856"/>
  <unicode hex="0035"/>
  <outline>
    <contour>
      <point x="39" y="365" type="line" smooth="yes"/>
      <point x="39" y="195"/>
      <point x="238" y="-20"/>
      <point x="418" y="-20.0" type="qcurve" smooth="yes"/>
      <point x="593" y="-20"/>
      <point x="799" y="235"/>
      <point x="799" y="465" type="qcurve" smooth="yes"/>
      <point x="799" y="714"/>
      <point x="609" y="960"/>
      <point x="454" y="960" type="qcurve" smooth="yes"/>
      <point x="377" y="960"/>
      <point x="291" y="927"/>
      <point x="262" y="898" type="qcurve"/>
      <point x="304" y="1292" type="line"/>
      <point x="734" y="1292" type="line"/>
      <point x="734" y="1456" type="line"/>
      <point x="155" y="1456" type="line"/>
      <point x="83" y="730" type="line"/>
      <point x="218" y="676" type="line"/>
      <point x="238" y="721"/>
      <point x="326" y="796"/>
      <point x="413" y="796" type="qcurve" smooth="yes"/>
      <point x="516" y="796"/>
      <point x="617" y="656"/>
      <point x="617" y="465" type="qcurve" smooth="yes"/>
      <point x="617" y="293"/>
      <point x="516" y="143"/>
      <point x="412" y="143" type="qcurve" smooth="yes"/>
      <point x="309" y="143"/>
      <point x="215" y="253"/>
      <point x="215" y="365" type="qcurve" smooth="yes"/>
      <point x="215" y="427" type="line"/>
      <point x="39" y="427" type="line"/>
    </contour>
  </outline>
</glyph>
<glyph name="six" format="1">
  <advance width="950"/>
  <unicode hex="0036"/>
  <outline>
    <contour>
      <point x="52" y="614" type="line" smooth="yes"/>
      <point x="52" y="274"/>
      <point x="312" y="-30"/>
      <point x="492" y="-30" type="qcurve" smooth="yes"/>
      <point x="672" y="-30"/>
      <point x="908" y="244"/>
      <point x="908" y="464" type="qcurve" smooth="yes"/>
      <point x="908" y="683"/>
      <point x="697" y="954"/>
      <point x="525" y="954" type="qcurve" smooth="yes"/>
      <point x="360" y="954"/>
      <point x="159" y="683"/>
      <point x="159" y="464" type="qcurve"/>
      <point x="226" y="464" type="line"/>
      <point x="226" y="624"/>
      <point x="387" y="801"/>
      <point x="492" y="801" type="qcurve" smooth="yes"/>
      <point x="603" y="801"/>
      <point x="726" y="625"/>
      <point x="726" y="464" type="qcurve" smooth="yes"/>
      <point x="726" y="302"/>
      <point x="603" y="123"/>
      <point x="492" y="123" type="qcurve" smooth="yes"/>
      <point x="380" y="123"/>
      <point x="232" y="341"/>
      <point x="232" y="604" type="qcurve" smooth="yes"/>
      <point x="232" y="654" type="line" smooth="yes"/>
      <point x="232" y="1004"/>
      <point x="500" y="1333"/>
      <point x="731" y="1333" type="qcurve" smooth="yes"/>
      <point x="748" y="1333" type="line"/>
      <point x="748" y="1486" type="line"/>
      <point x="731" y="1486" type="line" smooth="yes"/>
      <point x="406" y="1486"/>
      <point x="52" y="1024"/>
      <point x="52" y="644" type="qcurve" smooth="yes"/>
    </contour>
  </outline>
</glyph>
<glyph name="seven" format="1">
  <advance width="1116"/>
  <unicode hex="0037"/>
  <outline>
    <contour>
      <point x="283" y="0" type="line"/>
      <point x="471" y="0" type="line"/>
      <point x="965" y="1354" type="line"/>
      <point x="965" y="1456" type="line"/>
      <point x="123" y="1456" type="line"/>
      <point x="123" y="1304" type="line"/>
      <point x="777" y="1304" type="line"/>
    </contour>
  </outline>
</glyph>
<glyph name="eight" format="1">
  <advance width="1390"/>
  <unicode hex="0038"/>
  <outline>
    <contour>
      <point x="288" y="386" type="qcurve" smooth="yes"/>
      <point x="288" y="188"/>
      <point x="520" y="-30"/>
      <point x="695" y="-30" type="qcurve" smooth="yes"/>
      <point x="870" y="-30"/>
      <point x="1102" y="188"/>
      <point x="1102" y="386" type="qcurve" smooth="yes"/>
      <point x="1102" y="516"/>
      <point x="982" y="697"/>
      <point x="882" y="743" type="qcurve"/>
      <point x="882" y="747" type="line"/>
      <point x="958" y="792"/>
      <point x="1062" y="968"/>
      <point x="1062" y="1087" type="qcurve" smooth="yes"/>
      <point x="1062" y="1267"/>
      <point x="853" y="1486"/>
      <point x="695" y="1486" type="qcurve" smooth="yes"/>
      <point x="537" y="1486"/>
      <point x="328" y="1267"/>
      <point x="328" y="1087" type="qcurve" smooth="yes"/>
      <point x="328" y="968"/>
      <point x="431" y="792"/>
      <point x="508" y="747" type="qcurve"/>
      <point x="508" y="743" type="line"/>
      <point x="408" y="697"/>
      <point x="288" y="515"/>
    </contour>
    <contour>
      <point x="468" y="395" type="qcurve" smooth="yes"/>
      <point x="468" y="517"/>
      <point x="587" y="668"/>
      <point x="695" y="668" type="qcurve" smooth="yes"/>
      <point x="802" y="668"/>
      <point x="921" y="517"/>
      <point x="921" y="395" type="qcurve" smooth="yes"/>
      <point x="921" y="274"/>
      <point x="802" y="123"/>
      <point x="695" y="123" type="qcurve" smooth="yes"/>
      <point x="587" y="123"/>
      <point x="468" y="274"/>
    </contour>
    <contour>
      <point x="504" y="1078" type="qcurve" smooth="yes"/>
      <point x="504" y="1190"/>
      <point x="604" y="1333"/>
      <point x="695" y="1333" type="qcurve" smooth="yes"/>
      <point x="785" y="1333"/>
      <point x="886" y="1190"/>
      <point x="886" y="1078" type="qcurve" smooth="yes"/>
      <point x="886" y="966"/>
      <point x="785" y="822"/>
      <point x="695" y="822" type="qcurve" smooth="yes"/>
      <point x="604" y="822"/>
      <point x="504" y="966"/>
    </contour>
  </outline>
</glyph>
<glyph name="nine" format="1">
  <advance width="1116"/>
  <unicode hex="0039"/>
  <outline>
    <contour>
      <point x="125" y="1002" type="qcurve" smooth="yes"/>
      <point x="125" y="787"/>
      <point x="337" y="522"/>
      <point x="508" y="522" type="qcurve" smooth="yes"/>
      <point x="673" y="522"/>
      <point x="875" y="787"/>
      <point x="875" y="1002" type="qcurve"/>
      <point x="807" y="1002" type="line"/>
      <point x="807" y="846"/>
      <point x="646" y="675"/>
      <point x="541" y="675" type="qcurve" smooth="yes"/>
      <point x="430" y="675"/>
      <point x="308" y="846"/>
      <point x="308" y="1002" type="qcurve" smooth="yes"/>
      <point x="308" y="1159"/>
      <point x="430" y="1333"/>
      <point x="541" y="1333" type="qcurve" smooth="yes"/>
      <point x="653" y="1333"/>
      <point x="801" y="1115"/>
      <point x="801" y="852" type="qcurve" smooth="yes"/>
      <point x="801" y="802" type="line" smooth="yes"/>
      <point x="801" y="452"/>
      <point x="533" y="123"/>
      <point x="302" y="123" type="qcurve" smooth="yes"/>
      <point x="285" y="123" type="line"/>
      <point x="285" y="-30" type="line"/>
      <point x="302" y="-30" type="line" smooth="yes"/>
      <point x="627" y="-30"/>
      <point x="981" y="432"/>
      <point x="981" y="812" type="qcurve" smooth="yes"/>
      <point x="981" y="842" type="line" smooth="yes"/>
      <point x="981" y="1182"/>
      <point x="722" y="1486"/>
      <point x="541" y="1486" type="qcurve" smooth="yes"/>
      <point x="361" y="1486"/>
      <point x="125" y="1218"/>
    </contour>
  </outline>
</glyph>
<glyph name="colon" format="1">
  <advance width="582.72"/>
  <unicode hex="003A"/>
  <outline>
    <contour>
      <point x="176.0" y="93.04" type="qcurve" smooth="yes"/>
      <point x="176.0" y="45.660000000000004"/>
      <point x="235.56" y="-22.0"/>
      <point x="291.36" y="-22.0" type="qcurve" smooth="yes"/>
      <point x="347.16" y="-22.0"/>
      <point x="406.72" y="45.660000000000004"/>
      <point x="406.72" y="93.04" type="qcurve" smooth="yes"/>
      <point x="406.72" y="140.42000000000002"/>
      <point x="347.16" y="208.08"/>
      <point x="291.36" y="208.08" type="qcurve" smooth="yes"/>
      <point x="235.56" y="208.08"/>
      <point x="176.0" y="140.42000000000002"/>
    </contour>
    <contour>
      <point x="176.0" y="952.96" type="qcurve" smooth="yes"/>
      <point x="176.0" y="905.58"/>
      <point x="235.56" y="837.92"/>
      <point x="291.36" y="837.92" type="qcurve" smooth="yes"/>
      <point x="347.16" y="837.92"/>
      <point x="406.72" y="905.58"/>
      <point x="406.72" y="952.96" type="qcurve" smooth="yes"/>
      <point x="406.72" y="1000.34"/>
      <point x="347.16" y="1068.0"/>
      <point x="291.36" y="1068.0" type="qcurve" smooth="yes"/>
      <point x="235.56" y="1068.0"/>
      <point x="176.0" y="1000.34"/>
    </contour>
  </outline>
</glyph>
<glyph name="semicolon" format="1">
  <advance width="582.72"/>
  <unicode hex="003B"/>
  <outline>
    <contour>
      <point x="125.52" y="-210.26" type="qcurve"/>
      <point x="223.92" y="-279.21" type="line"/>
      <point x="297.28" y="-214.64000000000001"/>
      <point x="385.84" y="-38.56"/>
      <point x="385.84" y="67.48" type="qcurve" smooth="yes"/>
      <point x="385.84" y="212.08" type="line"/>
      <point x="218.8" y="212.08" type="line"/>
      <point x="218.8" y="67.48" type="line" smooth="yes"/>
      <point x="218.8" y="-19.28"/>
      <point x="170.4" y="-148.6"/>
    </contour>
    <contour>
      <point x="176.0" y="952.96" type="qcurve" smooth="yes"/>
      <point x="176.0" y="905.58"/>
      <point x="235.56" y="837.92"/>
      <point x="291.36" y="837.92" type="qcurve" smooth="yes"/>
      <point x="347.16" y="837.92"/>
      <point x="406.72" y="905.58"/>
      <point x="406.72" y="952.96" type="qcurve" smooth="yes"/>
      <point x="406.72" y="1000.34"/>
      <point x="347.16" y="1068.0"/>
      <point x="291.36" y="1068.0" type="qcurve" smooth="yes"/>
      <point x="235.56" y="1068.0"/>
      <point x="176.0" y="1000.34"/>
    </contour>
  </outline>
</glyph>
<glyph name="B" format="2">
  <advance width="869"/>
  <unicode hex="0042"/>
  <outline>
    <contour>
      <point x="155" y="0" type="line"/>
      <point x="437" y="0" type="line" smooth="yes"/>
      <point x="628" y="0"/>
      <point x="809" y="220"/>
      <point x="809" y="418" type="qcurve" smooth="yes"/>
      <point x="809" y="560"/>
      <point x="688" y="735"/>
      <point x="588" y="764" type="qcurve"/>
      <point x="588" y="768" type="line"/>
      <point x="668" y="796"/>
      <point x="771" y="950"/>
      <point x="771" y="1071" type="qcurve" smooth="yes"/>
      <point x="771" y="1270"/>
      <point x="600" y="1456"/>
      <point x="407" y="1456" type="qcurve" smooth="yes"/>
      <point x="155" y="1456" type="line"/>
    </contour>
    <contour>
      <point x="335" y="163" type="line"/>
      <point x="335" y="679" type="line"/>
      <point x="437" y="679" type="line" smooth="yes"/>
      <point x="540" y="679"/>
      <point x="627" y="540"/>
      <point x="627" y="419" type="qcurve" smooth="yes"/>
      <point x="627" y="297"/>
      <point x="561.0" y="163.0"/>
      <point x="437" y="163" type="qcurve" smooth="yes"/>
    </contour>
    <contour>
      <point x="335" y="837" type="line"/>
      <point x="335" y="1293" type="line"/>
      <point x="407" y="1293" type="line" smooth="yes"/>
      <point x="513" y="1293"/>
      <point x="589" y="1183"/>
      <point x="589" y="1071" type="qcurve" smooth="yes"/>
      <point x="589" y="959"/>
      <point x="514.0" y="837.0"/>
      <point x="407" y="837" type="qcurve" smooth="yes"/>
    </contour>
  </outline>
</glyph>
<glyph name="E" format="2">
  <advance width="782"/>
  <unicode hex="0045"/>
  <outline>
    <contour>
      <point x="155" y="0" type="line"/>
      <point x="749" y="0" type="line"/>
      <point x="749" y="163" type="line"/>
      <point x="339" y="163" type="line"/>
      <point x="339" y="670" type="line"/>
      <point x="697" y="670" type="line"/>
      <point x="697" y="832" type="line"/>
      <point x="339" y="832" type="line"/>
      <point x="339" y="1293" type="line"/>
      <point x="739" y="1293" type="line"/>
      <point x="739" y="1456" type="line"/>
      <point x="155" y="1456" type="line"/>
    </contour>
  </outline>
</glyph>
<glyph name="G" format="2">
  <advance width="887"/>
  <unicode hex="0047"/>
  <outline>
    <contour>
      <point x="80" y="565" type="line" smooth="yes"/>
      <point x="80" y="235"/>
      <point x="293" y="-20"/>
      <point x="504" y="-20" type="qcurve" smooth="yes"/>
      <point x="625" y="-20"/>
      <point x="814" y="110"/>
      <point x="837" y="149" type="qcurve"/>
      <point x="837" y="726" type="line"/>
      <point x="477" y="726" type="line"/>
      <point x="477" y="562" type="line"/>
      <point x="659" y="562" type="line"/>
      <point x="659" y="217" type="line"/>
      <point x="630" y="179"/>
      <point x="538" y="139"/>
      <point x="498" y="139" type="qcurve" smooth="yes"/>
      <point x="379" y="139"/>
      <point x="265" y="306"/>
      <point x="265" y="565" type="qcurve" smooth="yes"/>
      <point x="265" y="892" type="line" smooth="yes"/>
      <point x="265" y="1140"/>
      <point x="373" y="1317"/>
      <point x="481" y="1317" type="qcurve" smooth="yes"/>
      <point x="567" y="1317"/>
      <point x="640" y="1162"/>
      <point x="643" y="1060" type="qcurve" smooth="yes"/>
      <point x="644" y="1020" type="line"/>
      <point x="828" y="1020" type="line"/>
      <point x="827" y="1063" type="line" smooth="yes"/>
      <point x="822" y="1261"/>
      <point x="659" y="1476"/>
      <point x="497" y="1476" type="qcurve" smooth="yes"/>
      <point x="296" y="1476"/>
      <point x="80" y="1227"/>
      <point x="80" y="892" type="qcurve" smooth="yes"/>
    </contour>
  </outline>
</glyph>
<glyph name="I" format="2">
  <advance width="503"/>
  <unicode hex="0049"/>
  <outline>
    <contour>
      <point x="160" y="0" type="line"/>
      <point x="343" y="0" type="line"/>
      <point x="343" y="1456" type="line"/>
      <point x="160" y="1456" type="line"/>
    </contour>
  </outline>
</glyph>
<glyph name="N" format="2">
  <advance width="1061"/>
  <unicode hex="004E"/>
  <outline>
    <contour>
      <point x="155" y="0" type="line"/>
      <point x="325" y="0" type="line"/>
      <point x="325" y="930" type="line" smooth="yes"/>
      <point x="325.0" y="964.0"/>
      <point x="322" y="1040"/>
      <point x="319" y="1074" type="qcurve"/>
      <point x="327" y="1074" type="line"/>
      <point x="337" y="1042"/>
      <point x="355" y="982"/>
      <point x="367" y="950" type="qcurve" smooth="yes"/>
      <point x="734" y="0" type="line"/>
      <point x="906" y="0" type="line"/>
      <point x="906" y="1456" type="line"/>
      <point x="746" y="1456" type="line"/>
      <point x="746" y="526" type="line" smooth="yes"/>
      <point x="746.0" y="491.0"/>
      <point x="749" y="416"/>
      <point x="752" y="381" type="qcurve"/>
      <point x="745" y="381" type="line"/>
      <point x="735" y="414"/>
      <point x="715" y="474"/>
      <point x="703" y="506" type="qcurve" smooth="yes"/>
      <point x="347" y="1456" type="line"/>
      <point x="155" y="1456" type="line"/>
    </contour>
  </outline>
</glyph>
<glyph name="O" format="2">
  <advance width="943"/>
  <unicode hex="004F"/>
  <outline>
    <contour>
      <point x="80" y="562" type="line" smooth="yes"/>
      <point x="80" y="226.0"/>
      <point x="292" y="-20"/>
      <point x="472" y="-20" type="qcurve" smooth="yes"/>
      <point x="652" y="-20"/>
      <point x="863.0" y="226.0"/>
      <point x="863" y="562" type="qcurve" smooth="yes"/>
      <point x="863" y="894" type="line" smooth="yes"/>
      <point x="863" y="1230"/>
      <point x="652" y="1476"/>
      <point x="472" y="1476" type="qcurve" smooth="yes"/>
      <point x="292" y="1476"/>
      <point x="80" y="1230"/>
      <point x="80" y="894" type="qcurve" smooth="yes"/>
    </contour>
    <contour>
      <point x="265" y="562" type="qcurve" smooth="yes"/>
      <point x="265" y="894" type="line" smooth="yes"/>
      <point x="265" y="1152"/>
      <point x="371" y="1317"/>
      <point x="472" y="1317" type="qcurve" smooth="yes"/>
      <point x="573" y="1317"/>
      <point x="677" y="1152"/>
      <point x="677" y="894" type="qcurve" smooth="yes"/>
      <point x="677" y="562" type="line" smooth="yes"/>
      <point x="677.0" y="304.0"/>
      <point x="573" y="139"/>
      <point x="472" y="139" type="qcurve" smooth="yes"/>
      <point x="371" y="139"/>
      <point x="265.0" y="304.0"/>
    </contour>
  </outline>
</glyph>
<glyph name="P" format="2">
  <advance width="853"/>
  <unicode hex="0050"/>
  <outline>
    <contour>
      <point x="170" y="0" type="line"/>
      <point x="354" y="0" type="line"/>
      <point x="354" y="572" type="line"/>
      <point x="454" y="572" type="line" smooth="yes"/>
      <point x="624" y="572"/>
      <point x="828" y="787"/>
      <point x="828" y="1016" type="qcurve" smooth="yes"/>
      <point x="828" y="1245"/>
      <point x="624" y="1456"/>
      <point x="454" y="1456" type="qcurve" smooth="yes"/>
      <point x="170" y="1456" type="line"/>
    </contour>
    <contour>
      <point x="354" y="736" type="line"/>
      <point x="354" y="1293" type="line"/>
      <point x="454" y="1293" type="line" smooth="yes"/>
      <point x="532" y="1293"/>
      <point x="644" y="1167"/>
      <point x="644" y="1016" type="qcurve" smooth="yes"/>
      <point x="644" y="865"/>
      <point x="533" y="736"/>
      <point x="454" y="736" type="qcurve" smooth="yes"/>
    </contour>
  </outline>
</glyph>
<glyph name="Q" format="2">
  <advance width="956"/>
  <unicode hex="0051"/>
  <outline>
    <contour>
      <point x="80" y="562" type="line" smooth="yes"/>
      <point x="80" y="226"/>
      <point x="292" y="-20"/>
      <point x="472" y="-20" type="qcurve" smooth="yes"/>
      <point x="652" y="-20"/>
      <point x="863" y="226"/>
      <point x="863" y="562" type="qcurve" smooth="yes"/>
      <point x="863" y="894" type="line" smooth="yes"/>
      <point x="863" y="1230"/>
      <point x="652" y="1476"/>
      <point x="472" y="1476" type="qcurve" smooth="yes"/>
      <point x="292" y="1476"/>
      <point x="80" y="1230"/>
      <point x="80" y="894" type="qcurve" smooth="yes"/>
    </contour>
    <contour>
      <point x="265" y="562" type="qcurve" smooth="yes"/>
      <point x="265" y="894" type="line" smooth="yes"/>
      <point x="265" y="1152"/>
      <point x="371" y="1317"/>
      <point x="472" y="1317" type="qcurve" smooth="yes"/>
      <point x="573" y="1317"/>
      <point x="677" y="1152"/>
      <point x="677" y="894" type="qcurve" smooth="yes"/>
      <point x="677" y="562" type="line" smooth="yes"/>
      <point x="677" y="304"/>
      <point x="573" y="139"/>
      <point x="472" y="139" type="qcurve" smooth="yes"/>
      <point x="371" y="139"/>
      <point x="265" y="304"/>
    </contour>
    <contour>
      <point x="814" y="-248" type="line"/>
      <point x="938" y="-122" type="line"/>
      <point x="592" y="148" type="line"/>
      <point x="472" y="27" type="line"/>
    </contour>
  </outline>
</glyph>
<glyph name="T" format="2">
  <advance width="774"/>
  <unicode hex="0054"/>
  <outline>
    <contour>
      <point x="0" y="1303" type="line"/>
      <point x="295" y="1303" type="line"/>
      <point x="295" y="0" type="line"/>
      <point x="478" y="0" type="line"/>
      <point x="478" y="1303" type="line"/>
      <point x="774" y="1303" type="line"/>
      <point x="774" y="1456" type="line"/>
      <point x="0" y="1456" type="line"/>
    </contour>
  </outline>
</glyph>
<glyph name="W" format="1">
  <advance width="1357.84"/>
  <unicode hex="0057"/>
  <outline>
    <contour>
      <point x="282.56" y="-10.0" type="line"/>
      <point x="465.28" y="-10.0" type="line"/>
      <point x="664.04" y="1057.28" type="line" smooth="yes"/>
      <point x="671.04" y="1097.28"/>
      <point x="675.04" y="1177.28"/>
      <point x="677.04" y="1215.28" type="qcurve"/>
      <point x="679.8" y="1215.28" type="line"/>
      <point x="681.8" y="1177.28"/>
      <point x="685.8" y="1097.28"/>
      <point x="692.8" y="1057.28" type="qcurve" smooth="yes"/>
      <point x="892.56" y="-10.0" type="line"/>
      <point x="1075.28" y="-10.0" type="line"/>
      <point x="1307.84" y="1456.0" type="line"/>
      <point x="1144.6399999999999" y="1456.0" type="line"/>
      <point x="994.8" y="402.9" type="line" smooth="yes"/>
      <point x="988.8" y="362.9"/>
      <point x="985.8" y="272.9"/>
      <point x="983.8" y="232.9" type="qcurve"/>
      <point x="979.8" y="232.9" type="line"/>
      <point x="977.8" y="272.9"/>
      <point x="975.8" y="362.9"/>
      <point x="968.8" y="402.9" type="qcurve" smooth="yes"/>
      <point x="772.4" y="1456.0" type="line"/>
      <point x="585.6800000000001" y="1456.0" type="line"/>
      <point x="394.08000000000004" y="402.9" type="line" smooth="yes"/>
      <point x="387.08000000000004" y="362.9"/>
      <point x="385.08000000000004" y="272.9"/>
      <point x="383.08000000000004" y="232.9" type="qcurve"/>
      <point x="379.08000000000004" y="232.9" type="line"/>
      <point x="377.08000000000004" y="272.9"/>
      <point x="374.08" y="362.9"/>
      <point x="368.08" y="402.9" type="qcurve" smooth="yes"/>
      <point x="213.44" y="1456.0" type="line"/>
      <point x="50.0" y="1456.0" type="line"/>
    </contour>
  </outline>
</glyph>
<glyph name="X" format="2">
  <advance width="769"/>
  <unicode hex="0058"/>
  <outline>
    <contour>
      <point x="-10" y="0" type="line"/>
      <point x="182" y="0" type="line"/>
      <point x="435" y="672" type="line"/>
      <point x="445" y="672" type="line"/>
      <point x="758" y="1456" type="line"/>
      <point x="566" y="1456" type="line"/>
      <point x="335" y="804" type="line"/>
      <point x="323" y="804" type="line"/>
    </contour>
    <contour>
      <point x="11" y="1456" type="line"/>
      <point x="323" y="672" type="line"/>
      <point x="331" y="672" type="line"/>
      <point x="583" y="0" type="line"/>
      <point x="779" y="0" type="line"/>
      <point x="446" y="804" type="line"/>
      <point x="438" y="804" type="line"/>
      <point x="206" y="1456" type="line"/>
    </contour>
  </outline>
</glyph>
<glyph name="Y" format="2">
  <advance width="776"/>
  <unicode hex="0059"/>
  <outline>
    <contour>
      <point x="296" y="0" type="line"/>
      <point x="480" y="0" type="line"/>
      <point x="480" y="546" type="line"/>
      <point x="794" y="1456" type="line"/>
      <point x="603" y="1456" type="line"/>
      <point x="428" y="892" type="line" smooth="yes"/>
      <point x="418" y="860"/>
      <point x="403" y="802"/>
      <point x="393" y="772" type="qcurve"/>
      <point x="389" y="772" type="line"/>
      <point x="379" y="802"/>
      <point x="363" y="860"/>
      <point x="353" y="892" type="qcurve" smooth="yes"/>
      <point x="182" y="1456" type="line"/>
      <point x="-18" y="1456" type="line"/>
      <point x="296" y="546" type="line"/>
    </contour>
  </outline>
</glyph>
<glyph name="a" format="2">
  <advance width="834"/>
  <unicode hex="0061"/>
  <outline>
    <contour>
      <point x="30" y="308" type="qcurve" smooth="yes"/>
      <point x="30" y="149"/>
      <point x="192" y="-10"/>
      <point x="307" y="-10" type="qcurve" smooth="yes"/>
      <point x="380" y="-10"/>
      <point x="491" y="62"/>
      <point x="520" y="102" type="qcurve"/>
      <point x="525" y="78"/>
      <point x="544" y="23"/>
      <point x="555" y="0" type="qcurve"/>
      <point x="728" y="0" type="line"/>
      <point x="728" y="16" type="line"/>
      <point x="712" y="60"/>
      <point x="694" y="175"/>
      <point x="694" y="240" type="qcurve" smooth="yes"/>
      <point x="694.0" y="775.0" type="line" smooth="yes"/>
      <point x="694.0" y="920.0"/>
      <point x="547" y="1082.0"/>
      <point x="396" y="1082.0" type="qcurve" smooth="yes"/>
      <point x="255" y="1082"/>
      <point x="84" y="917.0"/>
      <point x="84" y="792" type="qcurve" smooth="yes"/>
      <point x="84" y="738" type="line"/>
      <point x="261" y="738" type="line"/>
      <point x="261" y="792" type="line" smooth="yes"/>
      <point x="261.0" y="859.0"/>
      <point x="331" y="938.0"/>
      <point x="397" y="938.0" type="qcurve" smooth="yes"/>
      <point x="461" y="938"/>
      <point x="516" y="848"/>
      <point x="516.0" y="775.0" type="qcurve" smooth="yes"/>
      <point x="516" y="651" type="line"/>
      <point x="364" y="651" type="line" smooth="yes"/>
      <point x="211" y="651"/>
      <point x="30" y="468"/>
    </contour>
    <contour>
      <point x="208" y="318" type="qcurve" smooth="yes"/>
      <point x="208" y="403.0"/>
      <point x="299.0" y="508"/>
      <point x="381" y="508" type="qcurve" smooth="yes"/>
      <point x="516" y="508" type="line"/>
      <point x="516" y="334" type="line" smooth="yes"/>
      <point x="516" y="243"/>
      <point x="413" y="134"/>
      <point x="340" y="134" type="qcurve" smooth="yes"/>
      <point x="276.0" y="134.0"/>
      <point x="208" y="230"/>
    </contour>
  </outline>
</glyph>
<glyph name="b" format="2">
  <advance width="894"/>
  <unicode hex="0062"/>
  <outline>
    <contour>
      <point x="125" y="0" type="line"/>
      <point x="288" y="0" type="line"/>
      <point x="295" y="102" type="line"/>
      <point x="299" y="102" type="line"/>
      <point x="333" y="46"/>
      <point x="441" y="-18"/>
      <point x="530" y="-18" type="qcurve" smooth="yes"/>
      <point x="656" y="-18"/>
      <point x="824" y="175"/>
      <point x="824" y="419" type="qcurve" smooth="yes"/>
      <point x="824" y="679" type="line" smooth="yes"/>
      <point x="824" y="883"/>
      <point x="666" y="1072"/>
      <point x="524" y="1072" type="qcurve" smooth="yes"/>
      <point x="441" y="1072"/>
      <point x="328" y="997"/>
      <point x="303" y="943" type="qcurve"/>
      <point x="303" y="1536" type="line"/>
      <point x="125" y="1536" type="line"/>
    </contour>
    <contour>
      <point x="303" y="288" type="qcurve"/>
      <point x="303" y="764" type="line"/>
      <point x="322" y="828"/>
      <point x="418" y="924"/>
      <point x="491" y="924" type="qcurve" smooth="yes"/>
      <point x="570" y="924"/>
      <point x="642" y="818"/>
      <point x="642" y="679" type="qcurve" smooth="yes"/>
      <point x="642" y="382" type="line" smooth="yes"/>
      <point x="642" y="240"/>
      <point x="566" y="128"/>
      <point x="490" y="128" type="qcurve" smooth="yes"/>
      <point x="407" y="128"/>
      <point x="322" y="224"/>
    </contour>
  </outline>
</glyph>
<glyph name="d" format="2">
  <advance width="889"/>
  <unicode hex="0064"/>
  <outline>
    <contour>
      <point x="70" y="428" type="line" smooth="yes"/>
      <point x="70" y="210"/>
      <point x="243" y="-20"/>
      <point x="374" y="-20" type="qcurve" smooth="yes"/>
      <point x="464" y="-20"/>
      <point x="555" y="38"/>
      <point x="590" y="92" type="qcurve"/>
      <point x="594" y="92" type="line"/>
      <point x="601" y="0" type="line"/>
      <point x="764" y="0" type="line"/>
      <point x="764" y="1536" type="line"/>
      <point x="586" y="1536" type="line"/>
      <point x="586" y="943" type="line"/>
      <point x="548" y="1002"/>
      <point x="464" y="1072"/>
      <point x="374" y="1072" type="qcurve" smooth="yes"/>
      <point x="238" y="1072"/>
      <point x="70" y="848"/>
      <point x="70" y="682" type="qcurve" smooth="yes"/>
    </contour>
    <contour>
      <point x="252" y="428" type="qcurve" smooth="yes"/>
      <point x="252" y="682" type="line" smooth="yes"/>
      <point x="252" y="798"/>
      <point x="334" y="924"/>
      <point x="417" y="924" type="qcurve" smooth="yes"/>
      <point x="495" y="924"/>
      <point x="561" y="827"/>
      <point x="586" y="764" type="qcurve"/>
      <point x="586" y="288" type="line"/>
      <point x="561" y="225"/>
      <point x="495" y="128"/>
      <point x="417" y="128" type="qcurve" smooth="yes"/>
      <point x="324" y="128"/>
      <point x="252" y="244"/>
    </contour>
  </outline>
</glyph>
<glyph name="e" format="2">
  <advance width="913"/>
  <unicode hex="0065"/>
  <outline>
    <contour>
      <point x="70" y="510" type="line" smooth="yes"/>
      <point x="70" y="272"/>
      <point x="293" y="-30"/>
      <point x="502" y="-30" type="qcurve" smooth="yes"/>
      <point x="629" y="-30"/>
      <point x="807" y="98"/>
      <point x="850" y="172" type="qcurve"/>
      <point x="731" y="265" type="line"/>
      <point x="693" y="206"/>
      <point x="581" y="118"/>
      <point x="502" y="118" type="qcurve" smooth="yes"/>
      <point x="373" y="118"/>
      <point x="249" y="345"/>
      <point x="249" y="510" type="qcurve" smooth="yes"/>
      <point x="249" y="542" type="line" smooth="yes"/>
      <point x="249" y="707"/>
      <point x="365" y="934"/>
      <point x="476" y="934" type="qcurve" smooth="yes"/>
      <point x="586" y="934"/>
      <point x="677" y="760"/>
      <point x="677" y="630" type="qcurve"/>
      <point x="677" y="630" type="line"/>
      <point x="169" y="630" type="line"/>
      <point x="169" y="486" type="line"/>
      <point x="857" y="486" type="line"/>
      <point x="857" y="560" type="line" smooth="yes"/>
      <point x="857" y="800"/>
      <point x="659" y="1082"/>
      <point x="476" y="1082" type="qcurve" smooth="yes"/>
      <point x="293" y="1082"/>
      <point x="70" y="780"/>
      <point x="70" y="542" type="qcurve" smooth="yes"/>
    </contour>
  </outline>
</glyph>
<glyph name="h" format="1">
  <advance width="884.3199999999999"/>
  <unicode hex="0068"/>
  <outline>
    <contour>
      <point x="148.0" y="0.0" type="line"/>
      <point x="318.16" y="0.0" type="line"/>
      <point x="318.16" y="783.0" type="line"/>
      <point x="341.28" y="846.18"/>
      <point x="414.15999999999997" y="925.54"/>
      <point x="464.15999999999997" y="925.54" type="qcurve" smooth="yes"/>
      <point x="518.16" y="925.54"/>
      <point x="576.16" y="830.27"/>
      <point x="576.16" y="720.0" type="qcurve" smooth="yes"/>
      <point x="576.16" y="0.0" type="line"/>
      <point x="746.3199999999999" y="0.0" type="line"/>
      <point x="746.3199999999999" y="718.0" type="line" smooth="yes"/>
      <point x="746.3199999999999" y="909.14"/>
      <point x="624.08" y="1072.0"/>
      <point x="519.76" y="1072.0" type="qcurve" smooth="yes"/>
      <point x="455.96000000000004" y="1072.0"/>
      <point x="350.6" y="1007.73"/>
      <point x="318.16" y="947.0" type="qcurve"/>
      <point x="318.16" y="1536.0" type="line"/>
      <point x="148.0" y="1536.0" type="line"/>
    </contour>
  </outline>
</glyph>
<glyph name="j" format="2">
  <advance width="422"/>
  <unicode hex="006A"/>
  <outline>
    <contour>
      <point x="-80" y="-410" type="line"/>
      <point x="-58" y="-419"/>
      <point x="26" y="-436"/>
      <point x="60" y="-436" type="qcurve" smooth="yes"/>
      <point x="180" y="-436"/>
      <point x="305" y="-270"/>
      <point x="305" y="-90" type="qcurve" smooth="yes"/>
      <point x="305" y="1052" type="line"/>
      <point x="127" y="1052" type="line"/>
      <point x="127" y="-130" type="line" smooth="yes"/>
      <point x="127" y="-213"/>
      <point x="74" y="-285"/>
      <point x="26" y="-285" type="qcurve" smooth="yes"/>
      <point x="1" y="-285"/>
      <point x="-62" y="-271"/>
      <point x="-80" y="-265" type="qcurve"/>
    </contour>
    <contour>
      <point x="110" y="1372" type="qcurve" smooth="yes"/>
      <point x="110" y="1328"/>
      <point x="165" y="1268"/>
      <point x="216" y="1268" type="qcurve" smooth="yes"/>
      <point x="267" y="1268"/>
      <point x="322" y="1328"/>
      <point x="322" y="1372" type="qcurve" smooth="yes"/>
      <point x="322" y="1416"/>
      <point x="267" y="1476"/>
      <point x="216" y="1476" type="qcurve" smooth="yes"/>
      <point x="165" y="1476"/>
      <point x="110" y="1416"/>
    </contour>
  </outline>
</glyph>
<glyph name="k" format="2">
  <advance width="875"/>
  <unicode hex="006B"/>
  <outline>
    <contour>
      <point x="125" y="0" type="line"/>
      <point x="303" y="0" type="line"/>
      <point x="303" y="360" type="line"/>
      <point x="851" y="1052" type="line"/>
      <point x="649" y="1052" type="line"/>
      <point x="303" y="612" type="line"/>
      <point x="303" y="1536" type="line"/>
      <point x="125" y="1536" type="line"/>
    </contour>
    <contour>
      <point x="681" y="0" type="line"/>
      <point x="891" y="0" type="line"/>
      <point x="461" y="677" type="line"/>
      <point x="349" y="524" type="line"/>
    </contour>
  </outline>
</glyph>
<glyph name="m" format="2">
  <advance width="1472"/>
  <unicode hex="006D"/>
  <outline>
    <contour>
      <point x="125" y="0" type="line"/>
      <point x="303" y="0" type="line"/>
      <point x="303" y="764" type="line"/>
      <point x="333" y="833"/>
      <point x="431" y="921"/>
      <point x="497" y="921" type="qcurve" smooth="yes"/>
      <point x="571" y="921"/>
      <point x="651" y="818"/>
      <point x="652" y="700" type="qcurve" smooth="yes"/>
      <point x="652" y="0" type="line"/>
      <point x="830" y="0" type="line"/>
      <point x="830" y="764" type="line"/>
      <point x="861" y="833"/>
      <point x="958" y="921"/>
      <point x="1025" y="921" type="qcurve" smooth="yes"/>
      <point x="1099" y="921"/>
      <point x="1178" y="818"/>
      <point x="1179" y="700" type="qcurve" smooth="yes"/>
      <point x="1179" y="0" type="line"/>
      <point x="1357" y="0" type="line"/>
      <point x="1357" y="698" type="line" smooth="yes"/>
      <point x="1357" y="900"/>
      <point x="1207" y="1072"/>
      <point x="1075" y="1072" type="qcurve" smooth="yes"/>
      <point x="985" y="1072"/>
      <point x="849" y="982"/>
      <point x="803" y="900" type="qcurve"/>
      <point x="799" y="900" type="line"/>
      <point x="767" y="988"/>
      <point x="642" y="1072"/>
      <point x="553" y="1072" type="qcurve" smooth="yes"/>
      <point x="474" y="1072"/>
      <point x="345" y="998"/>
      <point x="299" y="932" type="qcurve"/>
      <point x="295" y="932" type="line"/>
      <point x="288" y="1052" type="line"/>
      <point x="125" y="1052" type="line"/>
    </contour>
  </outline>
</glyph>
<glyph name="q" format="2">
  <advance width="994"/>
  <unicode hex="0071"/>
  <outline>
    <contour>
      <point x="70" y="510" type="line" smooth="yes"/>
      <point x="70" y="280"/>
      <point x="269" y="-20"/>
      <point x="436" y="-20" type="qcurve" smooth="yes"/>
      <point x="526" y="-20"/>
      <point x="653" y="50"/>
      <point x="691" y="109" type="qcurve"/>
      <point x="691" y="-416" type="line"/>
      <point x="869" y="-416" type="line"/>
      <point x="869" y="1052" type="line"/>
      <point x="706" y="1052" type="line"/>
      <point x="699" y="930" type="line"/>
      <point x="695" y="930" type="line"/>
      <point x="662" y="990"/>
      <point x="526" y="1072"/>
      <point x="436" y="1072" type="qcurve" smooth="yes"/>
      <point x="269" y="1072"/>
      <point x="70" y="772"/>
      <point x="70" y="542" type="qcurve" smooth="yes"/>
    </contour>
    <contour>
      <point x="252" y="510" type="qcurve" smooth="yes"/>
      <point x="252" y="542" type="line" smooth="yes"/>
      <point x="252" y="704"/>
      <point x="362" y="924"/>
      <point x="479" y="924" type="qcurve" smooth="yes"/>
      <point x="557" y="924"/>
      <point x="666" y="827"/>
      <point x="691" y="764" type="qcurve"/>
      <point x="691" y="288" type="line"/>
      <point x="666" y="225"/>
      <point x="557" y="128"/>
      <point x="479" y="128" type="qcurve" smooth="yes"/>
      <point x="362" y="128"/>
      <point x="252" y="348"/>
    </contour>
  </outline>
</glyph>
<glyph name="r" format="2">
  <advance width="601"/>
  <unicode hex="0072"/>
  <outline>
    <contour>
      <point x="125" y="0" type="line"/>
      <point x="303" y="0" type="line"/>
      <point x="303" y="764" type="line"/>
      <point x="327" y="827"/>
      <point x="424" y="910"/>
      <point x="493" y="910" type="qcurve" smooth="yes"/>
      <point x="515" y="910"/>
      <point x="553" y="906"/>
      <point x="571" y="902" type="qcurve"/>
      <point x="571" y="1068" type="line"/>
      <point x="562" y="1072"/>
      <point x="521" y="1082"/>
      <point x="501" y="1082" type="qcurve" smooth="yes"/>
      <point x="432" y="1082"/>
      <point x="331" y="996"/>
      <point x="299" y="937" type="qcurve"/>
      <point x="295" y="937" type="line"/>
      <point x="288" y="1052" type="line"/>
      <point x="125" y="1052" type="line"/>
    </contour>
  </outline>
</glyph>
<glyph name="u" format="2">
  <advance width="965"/>
  <unicode hex="0075"/>
  <outline>
    <contour>
      <point x="115" y="354" type="line" smooth="yes"/>
      <point x="115" y="152"/>
      <point x="271" y="-20"/>
      <point x="403" y="-20" type="qcurve" smooth="yes"/>
      <point x="484" y="-20"/>
      <point x="621" y="54"/>
      <point x="665" y="120" type="qcurve"/>
      <point x="671" y="120" type="line"/>
      <point x="677" y="0" type="line"/>
      <point x="840" y="0" type="line"/>
      <point x="840" y="1052" type="line"/>
      <point x="662" y="1052" type="line"/>
      <point x="662" y="288" type="line"/>
      <point x="631" y="219"/>
      <point x="527" y="131"/>
      <point x="457" y="131" type="qcurve" smooth="yes"/>
      <point x="379" y="131"/>
      <point x="293" y="234"/>
      <point x="293" y="352" type="qcurve" smooth="yes"/>
      <point x="293" y="1052" type="line"/>
      <point x="115" y="1052" type="line"/>
    </contour>
  </outline>
</glyph>
<glyph name="w" format="1">
  <advance width="1125.28"/>
  <unicode hex="0077"/>
  <outline>
    <contour>
      <point x="25.0" y="1052.0" type="line"/>
      <point x="219.52" y="0.0" type="line"/>
      <point x="397.32" y="0.0" type="line"/>
      <point x="534.08" y="633.5" type="line" smooth="yes"/>
      <point x="542.96" y="673.5"/>
      <point x="555.36" y="753.5"/>
      <point x="560.88" y="793.5" type="qcurve"/>
      <point x="564.88" y="793.5" type="line"/>
      <point x="570.4" y="753.5"/>
      <point x="582.8" y="673.5"/>
      <point x="591.6800000000001" y="633.5" type="qcurve" smooth="yes"/>
      <point x="727.96" y="0.0" type="line"/>
      <point x="905.76" y="0.0" type="line"/>
      <point x="1100.28" y="1052.0" type="line"/>
      <point x="937.96" y="1052.0" type="line"/>
      <point x="842.6800000000001" y="407.4" type="line" smooth="yes"/>
      <point x="836.8" y="367.4"/>
      <point x="826.64" y="287.4"/>
      <point x="821.28" y="247.4" type="qcurve"/>
      <point x="815.28" y="247.4" type="line"/>
      <point x="809.9200000000001" y="287.4"/>
      <point x="797.56" y="367.4"/>
      <point x="788.6800000000001" y="407.4" type="qcurve" smooth="yes"/>
      <point x="648.4" y="1052.0" type="line"/>
      <point x="481.91999999999996" y="1052.0" type="line"/>
      <point x="342.0" y="407.4" type="line" smooth="yes"/>
      <point x="333.12" y="367.4"/>
      <point x="320.88" y="287.4"/>
      <point x="315.52" y="247.4" type="qcurve"/>
      <point x="309.52" y="247.4" type="line"/>
      <point x="304.15999999999997" y="287.4"/>
      <point x="293.88" y="367.4"/>
      <point x="288.0" y="407.4" type="qcurve" smooth="yes"/>
      <point x="192.36" y="1052.0" type="line"/>
    </contour>
  </outline>
</glyph>
<glyph name="y" format="2">
  <advance width="687"/>
  <unicode hex="0079"/>
  <outline>
    <contour>
      <point x="35" y="-416" type="line"/>
      <point x="58" y="-426"/>
      <point x="111" y="-436"/>
      <point x="146" y="-436" type="qcurve" smooth="yes"/>
      <point x="251" y="-436"/>
      <point x="353" y="-282"/>
      <point x="389" y="-140" type="qcurve" smooth="yes"/>
      <point x="687" y="1052" type="line"/>
      <point x="521" y="1052" type="line"/>
      <point x="389" y="439" type="line" smooth="yes"/>
      <point x="380" y="399"/>
      <point x="366" y="274"/>
      <point x="362" y="234" type="qcurve"/>
      <point x="357" y="234" type="line"/>
      <point x="353" y="274"/>
      <point x="331" y="399"/>
      <point x="321" y="439" type="qcurve" smooth="yes"/>
      <point x="170" y="1052" type="line"/>
      <point x="0" y="1052" type="line"/>
      <point x="282" y="10" type="line"/>
      <point x="250" y="-100" type="line" smooth="yes"/>
      <point x="220" y="-202"/>
      <point x="168" y="-281"/>
      <point x="132" y="-281" type="qcurve" smooth="yes"/>
      <point x="107" y="-281"/>
      <point x="57" y="-271"/>
      <point x="35" y="-263" type="qcurve"/>
    </contour>
  </outline>
</glyph>
<glyph name="currency" format="1">
  <advance width="1142.0"/>
  <unicode hex="00A4"/>
  <outline>
    <contour>
      <point x="144.12" y="610.0" type="qcurve" smooth="yes"/>
      <point x="144.12" y="355.0"/>
      <point x="386.51234782608697" y="0.0"/>
      <point x="571.0" y="0.0" type="qcurve" smooth="yes"/>
      <point x="755.487652173913" y="0.0"/>
      <point x="997.88" y="355.0"/>
      <point x="997.88" y="610.0" type="qcurve" smooth="yes"/>
      <point x="997.88" y="865.0"/>
      <point x="755.487652173913" y="1220.0"/>
      <point x="571.0" y="1220.0" type="qcurve" smooth="yes"/>
      <point x="386.51234782608697" y="1220.0"/>
      <point x="144.12" y="865.0"/>
    </contour>
    <contour>
      <point x="309.0" y="610.0" type="qcurve" smooth="yes"/>
      <point x="309.0" y="804.1680851063829"/>
      <point x="456.0" y="1069.9"/>
      <point x="571.0" y="1069.9" type="qcurve" smooth="yes"/>
      <point x="686.0" y="1069.9"/>
      <point x="833.0" y="804.1680851063829"/>
      <point x="833.0" y="610.0" type="qcurve" smooth="yes"/>
      <point x="833.0" y="415.831914893617"/>
      <point x="686.0" y="150.1"/>
      <point x="571.0" y="150.1" type="qcurve" smooth="yes"/>
      <point x="456.0" y="150.1"/>
      <point x="309.0" y="415.831914893617"/>
    </contour>
    <contour>
      <point x="107.32" y="1127.19" type="line"/>
      <point x="256.32" y="929.19" type="line"/>
      <point x="380.4" y="1038.0" type="line"/>
      <point x="231.4" y="1236.0" type="line"/>
    </contour>
    <contour>
      <point x="761.6" y="1038.0" type="line"/>
      <point x="885.6800000000001" y="929.19" type="line"/>
      <point x="1034.68" y="1127.19" type="line"/>
      <point x="910.6" y="1236.0" type="line"/>
    </contour>
    <contour>
      <point x="761.6" y="182.0" type="line"/>
      <point x="910.6" y="-16.0" type="line"/>
      <point x="1034.68" y="92.81" type="line"/>
      <point x="885.6800000000001" y="290.81" type="line"/>
    </contour>
    <contour>
      <point x="107.32" y="92.81" type="line"/>
      <point x="231.4" y="-16.0" type="line"/>
      <point x="380.4" y="182.0" type="line"/>
      <point x="256.32" y="290.81" type="line"/>
    </contour>
  </outline>
</glyph>
<glyph name="ordfeminine" format="1">
  <advance width="708.2"/>
  <unicode hex="00AA"/>
  <outline>
    <contour>
      <point x="66.0" y="868.2" type="qcurve" smooth="yes"/>
      <point x="66.0" y="743.1"/>
      <point x="178.76" y="611.0"/>
      <point x="259.32" y="611.0" type="qcurve" smooth="yes"/>
      <point x="327.88" y="611.0"/>
      <point x="414.9377251282682" y="690.6445398112321"/>
      <point x="434.6" y="741.8" type="qcurve"/>
      <point x="437.72" y="710.35"/>
      <point x="450.48" y="646.27"/>
      <point x="458.6" y="627.0" type="qcurve"/>
      <point x="610.2" y="627.0" type="line"/>
      <point x="610.2" y="639.0" type="line"/>
      <point x="600.2" y="674.0"/>
      <point x="588.2" y="764.0"/>
      <point x="588.2" y="815.0" type="qcurve" smooth="yes"/>
      <point x="588.2" y="1192.0" type="line" smooth="yes"/>
      <point x="588.2" y="1333.0"/>
      <point x="462.4" y="1476.0"/>
      <point x="349.6" y="1476.0" type="qcurve" smooth="yes"/>
      <point x="236.8" y="1476.0"/>
      <point x="102.0" y="1324.81"/>
      <point x="102.0" y="1222.0" type="qcurve" smooth="yes"/>
      <point x="102.0" y="1216.0" type="line"/>
      <point x="257.6" y="1216.0" type="line"/>
      <point x="257.6" y="1222.0" type="line" smooth="yes"/>
      <point x="257.6" y="1272.24"/>
      <point x="298.84335877862594" y="1348.1"/>
      <point x="346.6" y="1348.1" type="qcurve" smooth="yes"/>
      <point x="393.15125" y="1348.1"/>
      <point x="432.6" y="1260.6"/>
      <point x="432.6" y="1192.0" type="qcurve" smooth="yes"/>
      <point x="432.6" y="1131.4" type="line"/>
      <point x="334.6" y="1131.4" type="line" smooth="yes"/>
      <point x="217.84" y="1131.4"/>
      <point x="66.0" y="993.39"/>
    </contour>
    <contour>
      <point x="221.6" y="876.2" type="qcurve" smooth="yes"/>
      <point x="221.6" y="939.63"/>
      <point x="284.474251497006" y="1015.6"/>
      <point x="346.6" y="1015.6" type="qcurve" smooth="yes"/>
      <point x="432.6" y="1015.6" type="line"/>
      <point x="432.6" y="909.4" type="line"/>
      <point x="432.6" y="847.78"/>
      <point x="353.6" y="738.9"/>
      <point x="305.6" y="738.9" type="qcurve" smooth="yes"/>
      <point x="262.6" y="738.9"/>
      <point x="221.6" y="811.23"/>
    </contour>
  </outline>
</glyph>
<glyph name="macron" format="2">
  <advance width="946"/>
  <unicode hex="00AF"/>
  <outline>
    <contour>
      <point x="203" y="1178" type="line"/>
      <point x="743" y="1178" type="line"/>
      <point x="743" y="1328" type="line"/>
      <point x="203" y="1328" type="line"/>
    </contour>
  </outline>
</glyph>
<glyph name="acute" format="1">
  <advance width="986"/>
  <unicode hex="00B4"/>
  <outline>
    <contour>
      <point x="390" y="1156" type="line"/>
      <point x="551" y="1156" type="line"/>
      <point x="787" y="1456" type="line"/>
      <point x="582" y="1456" type="line"/>
    </contour>
  </outline>
</glyph>
<glyph name="cedilla" format="1">
  <advance width="1024.0"/>
  <unicode hex="00B8"/>
  <outline>
    <contour>
      <point x="461.6" y="0.0" type="line"/>
      <point x="401.6" y="-215.0" type="line"/>
      <point x="468.68" y="-215.0"/>
      <point x="526.0" y="-261.98"/>
      <point x="526.0" y="-303.6" type="qcurve" smooth="yes"/>
      <point x="526.0" y="-355.21999999999997"/>
      <point x="440.4" y="-415.2"/>
      <point x="344.52" y="-415.2" type="qcurve"/>
      <point x="351.8" y="-536.0" type="line"/>
      <point x="535.24" y="-536.0"/>
      <point x="672.8" y="-401.98"/>
      <point x="672.8" y="-303.6" type="qcurve" smooth="yes"/>
      <point x="672.8" y="-234.32"/>
      <point x="615.04" y="-148.86"/>
      <point x="540.8" y="-125.4" type="qcurve"/>
      <point x="586.0" y="0.0" type="line"/>
    </contour>
    <contour>
      <point x="493.0" y="0.0" type="move" name="_bottom"/>
    </contour>
  </outline>
</glyph>
<glyph name="questiondown" format="1">
  <advance width="936.8"/>
  <unicode hex="00BF"/>
  <outline>
    <contour>
      <point x="201.0" y="71.5" type="qcurve" smooth="yes"/>
      <point x="201.0" y="-109.8"/>
      <point x="353.84000000000003" y="-300.0"/>
      <point x="488.4" y="-300.0" type="qcurve" smooth="yes"/>
      <point x="624.2" y="-300.0"/>
      <point x="780.8" y="-118.0"/>
      <point x="780.8" y="61.0" type="qcurve" smooth="yes"/>
      <point x="780.8" y="81.0" type="line"/>
      <point x="611.4" y="81.0" type="line"/>
      <point x="611.4" y="61.0" type="line" smooth="yes"/>
      <point x="611.4" y="-47.769999999999996"/>
      <point x="548.4" y="-148.07999999999998"/>
      <point x="488.4" y="-148.07999999999998" type="qcurve" smooth="yes"/>
      <point x="429.4" y="-148.07999999999998"/>
      <point x="371.28" y="-39.3"/>
      <point x="371.28" y="71.5" type="qcurve" smooth="yes"/>
      <point x="371.28" y="174.3"/>
      <point x="433.48" y="310.01"/>
      <point x="491.4" y="387.0" type="qcurve" smooth="yes"/>
      <point x="569.64" y="493.82"/>
      <point x="603.2" y="634.35"/>
      <point x="603.2" y="756.0" type="qcurve" smooth="yes"/>
      <point x="603.2" y="766.0" type="line"/>
      <point x="432.92" y="766.0" type="line"/>
      <point x="432.92" y="756.0" type="line" smooth="yes"/>
      <point x="432.92" y="689.1"/>
      <point x="419.48" y="548.03"/>
      <point x="368.08" y="482.96" type="qcurve" smooth="yes"/>
      <point x="313.12" y="415.72"/>
      <point x="201.0" y="212.04"/>
    </contour>
    <contour>
      <point x="394.48" y="1082.96" type="qcurve" smooth="yes"/>
      <point x="394.48" y="1035.58"/>
      <point x="454.04" y="967.92"/>
      <point x="509.84" y="967.92" type="qcurve" smooth="yes"/>
      <point x="565.64" y="967.92"/>
      <point x="625.2" y="1035.58"/>
      <point x="625.2" y="1082.96" type="qcurve" smooth="yes"/>
      <point x="625.2" y="1130.34"/>
      <point x="565.64" y="1198.0"/>
      <point x="509.84" y="1198.0" type="qcurve" smooth="yes"/>
      <point x="454.04" y="1198.0"/>
      <point x="394.48" y="1130.34"/>
    </contour>
  </outline>
</glyph>
<glyph name="thorn" format="1">
  <advance width="903.84"/>
  <unicode hex="00FE"/>
  <outline>
    <contour>
      <point x="148.0" y="-416.0" type="line"/>
      <point x="318.16" y="-416.0" type="line"/>
      <point x="318.16" y="81.0" type="line"/>
      <point x="358.04" y="29.18"/>
      <point x="448.36" y="-20.0"/>
      <point x="501.56" y="-20.0" type="qcurve" smooth="yes"/>
      <point x="646.76" y="-20.0"/>
      <point x="818.84" y="280.0"/>
      <point x="818.84" y="510.0" type="qcurve" smooth="yes"/>
      <point x="818.84" y="542.0" type="line" smooth="yes"/>
      <point x="818.84" y="772.0"/>
      <point x="646.76" y="1072.0"/>
      <point x="501.56" y="1072.0" type="qcurve" smooth="yes"/>
      <point x="450.36" y="1072.0"/>
      <point x="356.16" y="1016.82"/>
      <point x="318.16" y="967.1" type="qcurve"/>
      <point x="318.16" y="1536.0" type="line"/>
      <point x="148.0" y="1536.0" type="line"/>
    </contour>
    <contour>
      <point x="318.16" y="303.0" type="qcurve"/>
      <point x="318.16" y="749.0" type="line"/>
      <point x="341.16" y="818.09"/>
      <point x="417.15999999999997" y="929.18"/>
      <point x="475.15999999999997" y="929.18" type="qcurve" smooth="yes"/>
      <point x="563.16" y="929.18"/>
      <point x="645.16" y="705.87"/>
      <point x="645.16" y="542.0" type="qcurve" smooth="yes"/>
      <point x="645.16" y="510.0" type="line" smooth="yes"/>
      <point x="645.16" y="346.13"/>
      <point x="563.16" y="122.82000000000001"/>
      <point x="475.15999999999997" y="122.82000000000001" type="qcurve" smooth="yes"/>
      <point x="417.15999999999997" y="122.82000000000001"/>
      <point x="341.16" y="233.91"/>
    </contour>
  </outline>
</glyph>
<glyph name="ring" format="1">
  <advance width="904.0"/>
  <unicode hex="02DA"/>
  <outline>
    <contour>
      <point x="281.12" y="1361.0" type="qcurve" smooth="yes"/>
      <point x="281.12" y="1262.0"/>
      <point x="371.84000000000003" y="1132.0"/>
      <point x="452.0" y="1132.0" type="qcurve" smooth="yes"/>
      <point x="532.16" y="1132.0"/>
      <point x="622.88" y="1262.0"/>
      <point x="622.88" y="1361.0" type="qcurve" smooth="yes"/>
      <point x="622.88" y="1460.0"/>
      <point x="532.16" y="1590.0"/>
      <point x="452.0" y="1590.0" type="qcurve" smooth="yes"/>
      <point x="371.84000000000003" y="1590.0"/>
      <point x="281.12" y="1460.0"/>
    </contour>
    <contour>
      <point x="396.0" y="1361.0" type="qcurve" smooth="yes"/>
      <point x="396.0" y="1414.61"/>
      <point x="424.0" y="1483.94"/>
      <point x="452.0" y="1483.94" type="qcurve" smooth="yes"/>
      <point x="481.0" y="1483.94"/>
      <point x="508.0" y="1414.61"/>
      <point x="508.0" y="1361.0" type="qcurve" smooth="yes"/>
      <point x="508.0" y="1307.39"/>
      <point x="481.0" y="1238.06"/>
      <point x="452.0" y="1238.06" type="qcurve" smooth="yes"/>
      <point x="424.0" y="1238.06"/>
      <point x="396.0" y="1307.39"/>
    </contour>
    <contour>
      <point x="452.0" y="1052.0" type="move" name="_top"/>
    </contour>
  </outline>
</glyph>
<glyph name="dagger" format="1">
  <advance width="1120.4"/>
  <unicode hex="2020"/>
  <outline>
    <contour>
      <point x="513.8" y="-220.0" type="line"/>
      <point x="606.6" y="-220.0" type="line"/>
      <point x="651.2" y="524.0" type="line"/>
      <point x="619.8" y="1020.0" type="line"/>
      <point x="656.2" y="1516.0" type="line"/>
      <point x="464.2" y="1516.0" type="line"/>
      <point x="500.6" y="1020.0" type="line"/>
      <point x="469.2" y="524.0" type="line"/>
    </contour>
    <contour>
      <point x="194.0" y="936.3" type="line"/>
      <point x="560.2" y="954.95" type="line"/>
      <point x="926.4" y="936.3" type="line"/>
      <point x="926.4" y="1113.7" type="line"/>
      <point x="560.2" y="1095.05" type="line"/>
      <point x="194.0" y="1113.7" type="line"/>
    </contour>
  </outline>
</glyph>
<glyph name="ellipsis" format="1">
  <advance width="1683.84"/>
  <unicode hex="2026"/>
  <outline>
    <contour>
      <point x="160.0" y="98.5" type="qcurve" smooth="yes"/>
      <point x="160.0" y="48.39"/>
      <point x="222.2" y="-22.0"/>
      <point x="280.64" y="-22.0" type="qcurve" smooth="yes"/>
      <point x="339.08" y="-22.0"/>
      <point x="401.28" y="48.39"/>
      <point x="401.28" y="98.5" type="qcurve" smooth="yes"/>
      <point x="401.28" y="148.61"/>
      <point x="339.08" y="219.0"/>
      <point x="280.64" y="219.0" type="qcurve" smooth="yes"/>
      <point x="222.2" y="219.0"/>
      <point x="160.0" y="148.61"/>
    </contour>
    <contour>
      <point x="721.28" y="98.5" type="qcurve" smooth="yes"/>
      <point x="721.28" y="48.39"/>
      <point x="783.48" y="-22.0"/>
      <point x="841.92" y="-22.0" type="qcurve" smooth="yes"/>
      <point x="900.36" y="-22.0"/>
      <point x="962.56" y="48.39"/>
      <point x="962.56" y="98.5" type="qcurve" smooth="yes"/>
      <point x="962.56" y="148.61"/>
      <point x="900.36" y="219.0"/>
      <point x="841.92" y="219.0" type="qcurve" smooth="yes"/>
      <point x="783.48" y="219.0"/>
      <point x="721.28" y="148.61"/>
    </contour>
    <contour>
      <point x="1282.56" y="98.5" type="qcurve" smooth="yes"/>
      <point x="1282.56" y="48.39"/>
      <point x="1344.76" y="-22.0"/>
      <point x="1403.2" y="-22.0" type="qcurve" smooth="yes"/>
      <point x="1461.64" y="-22.0"/>
      <point x="1523.84" y="48.39"/>
      <point x="1523.84" y="98.5" type="qcurve" smooth="yes"/>
      <point x="1523.84" y="148.61"/>
      <point x="1461.64" y="219.0"/>
      <point x="1403.2" y="219.0" type="qcurve" smooth="yes"/>
      <point x="1344.76" y="219.0"/>
      <point x="1282.56" y="148.61"/>
    </contour>
  </outline>
</glyph>
<glyph name="numero" format="1">
  <advance width="1875.6"/>
  <unicode hex="2116"/>
  <outline>
    <contour>
      <point x="170.0" y="0.0" type="line"/>
      <point x="334.92" y="0.0" type="line"/>
      <point x="334.92" y="885.25" type="line" smooth="yes"/>
      <point x="334.92" y="915.25"/>
      <point x="330.92" y="990.25"/>
      <point x="326.92" y="1020.25" type="qcurve"/>
      <point x="336.92" y="1020.25" type="line"/>
      <point x="350.92" y="995.25"/>
      <point x="379.8" y="936.16"/>
      <point x="392.92" y="904.25" type="qcurve" smooth="yes"/>
      <point x="760.9200000000001" y="0.0" type="line"/>
      <point x="945.8399999999999" y="0.0" type="line"/>
      <point x="945.8399999999999" y="1456.0" type="line"/>
      <point x="780.9200000000001" y="1456.0" type="line"/>
      <point x="780.9200000000001" y="567.75" type="line" smooth="yes"/>
      <point x="780.9200000000001" y="537.75"/>
      <point x="784.9200000000001" y="470.75"/>
      <point x="788.9200000000001" y="432.75" type="qcurve"/>
      <point x="778.9200000000001" y="432.75" type="line"/>
      <point x="764.9200000000001" y="457.75"/>
      <point x="736.1600000000001" y="517.75"/>
      <point x="723.9200000000001" y="547.75" type="qcurve" smooth="yes"/>
      <point x="354.92" y="1456.0" type="line"/>
      <point x="170.0" y="1456.0" type="line"/>
    </contour>
    <contour>
      <point x="1091.04" y="136.3" type="line"/>
      <point x="1091.04" y="290.95" type="line"/>
      <point x="1730.4" y="290.95" type="line"/>
      <point x="1730.4" y="136.3" type="line"/>
    </contour>
    <contour>
      <point x="1065.84" y="964.0" type="qcurve" smooth="yes"/>
      <point x="1065.84" y="984.0" type="line" smooth="yes"/>
      <point x="1065.84" y="1194.18"/>
      <point x="1248.56" y="1476.0"/>
      <point x="1410.72" y="1476.0" type="qcurve" smooth="yes"/>
      <point x="1572.88" y="1476.0"/>
      <point x="1755.6" y="1194.18"/>
      <point x="1755.6" y="984.0" type="qcurve" smooth="yes"/>
      <point x="1755.6" y="964.0" type="line" smooth="yes"/>
      <point x="1755.6" y="753.82"/>
      <point x="1572.88" y="472.0"/>
      <point x="1410.72" y="472.0" type="qcurve" smooth="yes"/>
      <point x="1248.56" y="472.0"/>
      <point x="1065.84" y="753.82"/>
    </contour>
    <contour>
      <point x="1230.72" y="964.0" type="line" smooth="yes"/>
      <point x="1230.72" y="810.13"/>
      <point x="1320.96" y="614.82"/>
      <point x="1410.72" y="614.82" type="qcurve" smooth="yes"/>
      <point x="1500.48" y="614.82"/>
      <point x="1590.72" y="810.13"/>
      <point x="1590.72" y="964.0" type="qcurve" smooth="yes"/>
      <point x="1590.72" y="984.0" type="line" smooth="yes"/>
      <point x="1590.72" y="1137.87"/>
      <point x="1500.48" y="1333.18"/>
      <point x="1410.72" y="1333.18" type="qcurve" smooth="yes"/>
      <point x="1320.96" y="1333.18"/>
      <point x="1230.72" y="1137.87"/>
      <point x="1230.72" y="984.0" type="qcurve" smooth="yes"/>
    </contour>
  </outline>
</glyph>
<glyph name="fl" format="1">
  <advance width="882.44"/>
  <unicode hex="FB02"/>
  <outline>
    <contour>
      <point x="153.0" y="0.0" type="line"/>
      <point x="323.15999999999997" y="0.0" type="line"/>
      <point x="323.15999999999997" y="974.68" type="line"/>
      <point x="323.15999999999997" y="995.6" type="line"/>
      <point x="323.15999999999997" y="1181.8" type="line" smooth="yes"/>
      <point x="323.15999999999997" y="1295.85"/>
      <point x="381.15999999999997" y="1409.9"/>
      <point x="440.15999999999997" y="1409.9" type="qcurve" smooth="yes"/>
      <point x="488.88" y="1409.9"/>
      <point x="580.12" y="1374.72"/>
      <point x="618.4" y="1353.72" type="qcurve"/>
      <point x="648.96" y="1496.0" type="line"/>
      <point x="600.9200000000001" y="1523.64"/>
      <point x="493.4" y="1556.0"/>
      <point x="440.15999999999997" y="1556.0" type="qcurve" smooth="yes"/>
      <point x="305.6" y="1556.0"/>
      <point x="153.0" y="1364.9"/>
      <point x="153.0" y="1181.8" type="qcurve" smooth="yes"/>
    </contour>
    <contour>
      <point x="25.0" y="918.28" type="line"/>
      <point x="481.56" y="918.28" type="line"/>
      <point x="481.56" y="1052.0" type="line"/>
      <point x="229.92000000000002" y="1052.0" type="line"/>
      <point x="200.24" y="1052.0" type="line"/>
      <point x="25.0" y="1052.0" type="line"/>
    </contour>
    <contour>
      <point x="556.1600000000001" y="0.0" type="line"/>
      <point x="726.3199999999999" y="0.0" type="line"/>
      <point x="726.3199999999999" y="1496.0" type="line"/>
      <point x="556.1600000000001" y="1496.0" type="line"/>
    </contour>
  </outline>
</glyph>
<glyph name="f_f_l" format="1">
  <advance width="1263.6"/>
  <unicode hex="FB04"/>
  <outline>
    <contour>
      <point x="153.0" y="0.0" type="line"/>
      <point x="323.15999999999997" y="0.0" type="line"/>
      <point x="323.15999999999997" y="974.68" type="line"/>
      <point x="323.15999999999997" y="995.6" type="line"/>
      <point x="323.15999999999997" y="1181.8" type="line" smooth="yes"/>
      <point x="323.15999999999997" y="1295.85"/>
      <point x="364.15999999999997" y="1409.9"/>
      <point x="417.15999999999997" y="1409.9" type="qcurve" smooth="yes"/>
      <point x="449.44" y="1409.9"/>
      <point x="508.03999999999996" y="1382.9"/>
      <point x="537.0799999999999" y="1368.08" type="qcurve"/>
      <point x="565.64" y="1512.73" type="line"/>
      <point x="529.2" y="1530.73"/>
      <point x="454.08000000000004" y="1556.0"/>
      <point x="417.15999999999997" y="1556.0" type="qcurve" smooth="yes"/>
      <point x="293.6" y="1556.0"/>
      <point x="153.0" y="1364.9"/>
      <point x="153.0" y="1181.8" type="qcurve" smooth="yes"/>
    </contour>
    <contour>
      <point x="25.0" y="918.28" type="line"/>
      <point x="481.56" y="918.28" type="line"/>
      <point x="481.56" y="1052.0" type="line"/>
      <point x="229.92000000000002" y="1052.0" type="line"/>
      <point x="200.24" y="1052.0" type="line"/>
      <point x="25.0" y="1052.0" type="line"/>
    </contour>
    <contour>
      <point x="534.16" y="0.0" type="line"/>
      <point x="704.3199999999999" y="0.0" type="line"/>
      <point x="704.3199999999999" y="974.68" type="line"/>
      <point x="704.3199999999999" y="995.6" type="line"/>
      <point x="704.3199999999999" y="1181.8" type="line" smooth="yes"/>
      <point x="704.3199999999999" y="1295.85"/>
      <point x="762.3199999999999" y="1409.9"/>
      <point x="821.3199999999999" y="1409.9" type="qcurve" smooth="yes"/>
      <point x="870.04" y="1409.9"/>
      <point x="961.28" y="1374.72"/>
      <point x="999.56" y="1353.72" type="qcurve"/>
      <point x="1030.12" y="1496.0" type="line"/>
      <point x="982.0799999999999" y="1523.64"/>
      <point x="874.56" y="1556.0"/>
      <point x="821.3199999999999" y="1556.0" type="qcurve" smooth="yes"/>
      <point x="686.76" y="1556.0"/>
      <point x="534.16" y="1364.9"/>
      <point x="534.16" y="1181.8" type="qcurve" smooth="yes"/>
    </contour>
    <contour>
      <point x="404.96000000000004" y="918.28" type="line"/>
      <point x="861.52" y="918.28" type="line"/>
      <point x="861.52" y="1052.0" type="line"/>
      <point x="609.88" y="1052.0" type="line"/>
      <point x="580.2" y="1052.0" type="line"/>
      <point x="404.96000000000004" y="1052.0" type="line"/>
    </contour>
    <contour>
      <point x="937.3199999999999" y="0.0" type="line"/>
      <point x="1107.48" y="0.0" type="line"/>
      <point x="1107.48" y="1496.0" type="line"/>
      <point x="937.3199999999999" y="1496.0" type="line"/>
    </contour>
  </outline>
</glyph>
<glyph name="seven.pnum" format="1">
  <advance width="944.72"/>
  <outline>
    <contour>
      <point x="209.24" y="0.0" type="line"/>
      <point x="389.16" y="0.0" type="line"/>
      <point x="814.6" y="1356.5" type="line"/>
      <point x="814.6" y="1456.0" type="line"/>
      <point x="96.96000000000001" y="1456.0" type="line"/>
      <point x="96.96000000000001" y="1309.18" type="line"/>
      <point x="638.52" y="1309.18" type="line"/>
    </contour>
  </outline>
</glyph>
